<svg width="170" height="70" xmlns="http://www.w3.org/2000/svg" xmlns:xlink="http://www.w3.org/1999/xlink" viewBox="0 0 750 330"><defs><style>.cls-1{fill:none;}.cls-2{fill:#131929;}.cls-3{fill:#233240;}.cls-4{fill:url(#Degradado_sin_nombre_77);}.cls-5{fill:url(#Degradado_sin_nombre_74);}.cls-6,.cls-7{fill:#cecdce;}.cls-6{stroke-miterlimit:10;stroke-width:3px;stroke:url(#Degradado_sin_nombre_20);}.cls-8{fill:#93a4ae;}.cls-9{fill:url(#Degradado_sin_nombre_74-2);}.cls-10{fill:url(#Degradado_sin_nombre_81);}.cls-11{fill:url(#Degradado_sin_nombre_81-2);}.cls-12{fill:url(#Degradado_sin_nombre_81-3);}.cls-13{fill:url(#Degradado_sin_nombre_81-4);}.cls-14{fill:url(#Degradado_sin_nombre_20-2);}.cls-15{fill:url(#Degradado_sin_nombre_20-3);}.cls-16{fill:url(#Degradado_sin_nombre_20-4);}.cls-17{fill:url(#Degradado_sin_nombre_20-5);}.cls-18{fill:url(#Degradado_sin_nombre_20-6);}.cls-19{fill:url(#Degradado_sin_nombre_20-7);}.cls-20{fill:url(#Degradado_sin_nombre_20-8);}.cls-21{fill:url(#Degradado_sin_nombre_20-9);}.cls-22{fill:url(#Degradado_sin_nombre_20-10);}.cls-23{clip-path:url(#clip-path);}.cls-24{fill:url(#Degradado_sin_nombre_55);}.cls-25{fill:url(#Degradado_sin_nombre_55-2);}.cls-26{fill:url(#Degradado_sin_nombre_55-3);}.cls-27{fill:url(#Degradado_sin_nombre_55-4);}</style><linearGradient id="Degradado_sin_nombre_77" x1="96" y1="151.88" x2="96" y2="389.5" gradientUnits="userSpaceOnUse"><stop offset="0" stop-color="#131929" stop-opacity="0"/><stop offset="0.26" stop-color="#4f1824" stop-opacity="0.32"/><stop offset="0.51" stop-color="#841820" stop-opacity="0.61"/><stop offset="0.73" stop-color="#ab171d" stop-opacity="0.82"/><stop offset="0.9" stop-color="#c2171b" stop-opacity="0.95"/><stop offset="1" stop-color="#cb171a"/></linearGradient><linearGradient id="Degradado_sin_nombre_74" x1="95.89" y1="186.27" x2="95.89" y2="386.55" gradientUnits="userSpaceOnUse"><stop offset="0" stop-color="#131929" stop-opacity="0"/><stop offset="0.01" stop-color="#161929" stop-opacity="0.02"/><stop offset="0.21" stop-color="#4c1824" stop-opacity="0.31"/><stop offset="0.4" stop-color="#7a1821" stop-opacity="0.56"/><stop offset="0.58" stop-color="#9d181e" stop-opacity="0.75"/><stop offset="0.75" stop-color="#b6171c" stop-opacity="0.89"/><stop offset="0.89" stop-color="#c6171a" stop-opacity="0.97"/><stop offset="1" stop-color="#cb171a"/></linearGradient><linearGradient id="Degradado_sin_nombre_20" x1="95.95" y1="193.05" x2="95.95" y2="315.27" gradientUnits="userSpaceOnUse"><stop offset="0" stop-color="#131929"/><stop offset="1" stop-color="#e41432"/></linearGradient><linearGradient id="Degradado_sin_nombre_74-2" x1="80.8" y1="80.02" x2="80.8" y2="129.2" xlink:href="#Degradado_sin_nombre_74"/><linearGradient id="Degradado_sin_nombre_81" x1="383.53" y1="351.15" x2="383.53" y2="386.98" gradientUnits="userSpaceOnUse"><stop offset="0" stop-color="#131929"/><stop offset="0.03" stop-color="#27192a"/><stop offset="0.11" stop-color="#53172c"/><stop offset="0.2" stop-color="#7a172d"/><stop offset="0.29" stop-color="#9b162f"/><stop offset="0.39" stop-color="#b61530"/><stop offset="0.5" stop-color="#ca1531"/><stop offset="0.62" stop-color="#d91432"/><stop offset="0.77" stop-color="#e11432"/><stop offset="1" stop-color="#e41432"/></linearGradient><linearGradient id="Degradado_sin_nombre_81-2" x1="425.14" y1="351.15" x2="425.14" y2="386.98" xlink:href="#Degradado_sin_nombre_81"/><linearGradient id="Degradado_sin_nombre_81-3" x1="466.74" y1="351.15" x2="466.74" y2="386.98" xlink:href="#Degradado_sin_nombre_81"/><linearGradient id="Degradado_sin_nombre_81-4" x1="516.61" y1="351.15" x2="516.61" y2="386.98" xlink:href="#Degradado_sin_nombre_81"/><linearGradient id="Degradado_sin_nombre_20-2" x1="361.58" y1="113.11" x2="260.41" y2="214.28" xlink:href="#Degradado_sin_nombre_20"/><linearGradient id="Degradado_sin_nombre_20-3" x1="656.32" y1="109.47" x2="547.11" y2="218.68" xlink:href="#Degradado_sin_nombre_20"/><linearGradient id="Degradado_sin_nombre_20-4" x1="318.12" y1="340.39" x2="237.76" y2="260.03" xlink:href="#Degradado_sin_nombre_20"/><linearGradient id="Degradado_sin_nombre_20-5" x1="410.75" y1="330.98" x2="322" y2="242.23" xlink:href="#Degradado_sin_nombre_20"/><linearGradient id="Degradado_sin_nombre_20-6" x1="501.06" y1="327.37" x2="406.85" y2="233.16" xlink:href="#Degradado_sin_nombre_20"/><linearGradient id="Degradado_sin_nombre_20-7" x1="591.53" y1="334.2" x2="495.87" y2="238.55" xlink:href="#Degradado_sin_nombre_20"/><linearGradient id="Degradado_sin_nombre_20-8" x1="682.96" y1="351.47" x2="580.47" y2="248.99" xlink:href="#Degradado_sin_nombre_20"/><linearGradient id="Degradado_sin_nombre_20-9" x1="450.7" y1="123.26" x2="362.63" y2="211.33" xlink:href="#Degradado_sin_nombre_20"/><linearGradient id="Degradado_sin_nombre_20-10" x1="554.58" y1="120.17" x2="458.22" y2="216.53" xlink:href="#Degradado_sin_nombre_20"/><clipPath id="clip-path" transform="translate(0 -62.68)"><path class="cls-1" d="M677.12,213.69h4.56V0H226.3V213.69h.32c58.12-24.34,137.59-39.34,225.25-39.34S619,189.35,677.12,213.69Z"/></clipPath><linearGradient id="Degradado_sin_nombre_55" x1="282.09" y1="165.59" x2="355.6" y2="165.59" gradientUnits="userSpaceOnUse"><stop offset="0" stop-color="#dfdfdf"/><stop offset="1" stop-color="#ececec"/></linearGradient><linearGradient id="Degradado_sin_nombre_55-2" x1="375.67" y1="166.49" x2="447.07" y2="166.49" xlink:href="#Degradado_sin_nombre_55"/><linearGradient id="Degradado_sin_nombre_55-3" x1="464.62" y1="165.65" x2="538.66" y2="165.65" xlink:href="#Degradado_sin_nombre_55"/><linearGradient id="Degradado_sin_nombre_55-4" x1="555.86" y1="162.87" x2="628.79" y2="162.87" xlink:href="#Degradado_sin_nombre_55"/></defs><g id="Capa_2" data-name="Capa 2"><g id="Capa_1-2" data-name="Capa 1"><path class="cls-2" d="M174.25,218.39c-5.1-21.25,8.5-32.3-11.05-68.85-6.8-13.6-5.95-10.2-17-25.5,0,0-3.34-7.43-13-13.29A182.7,182.7,0,0,1,155.66,98a212.19,212.19,0,0,0-27.16-.84,178.88,178.88,0,0,1,21.19-17.5,212.28,212.28,0,0,0-26.85,3.74,179.56,179.56,0,0,1,17.91-20.76c-58.06,14.54-84.69,45.05-93,56.7a24.35,24.35,0,0,0-3,4.66c-11.05,15.3-10.2,11.9-17,25.5-19.55,36.55-6,47.6-11,68.85-28,61.2-9.94,93.87-9.94,93.87L88,341.64l7.41-72.44,7.41,72.44,81.34-29.38S202.3,279.59,174.25,218.39Z" transform="translate(0 -62.68)"/><path class="cls-3" d="M184.71,294.89a67.38,67.38,0,0,0-6.8-14.45c-5.1,18.7-31.45,43.35-31.45,43.35,34-40,24.65-66.3,18.7-84.15.85,10.2-8.5,18.7-8.5,18.7-.85-29.75-9.35-41.65-11.9-48.45,7.65-1.7,11.9-8.5,15.3-14.45-2.55,1.7-10.2-1.7-7.65-5.95,4.25-5.1,5.1-12.75-.85-20.4-7.81-4.14-17.85-4.25-32.3,0,14.45-9.35,27.2-6.8,27.2-6.8a32.53,32.53,0,0,0-26.35-12.75c-15,0-22.22,10.83-24.12,14.26-1.91-3.43-9.1-14.26-24.12-14.26a32.53,32.53,0,0,0-26.35,12.75s12.75-2.55,27.2,6.8c-13.5-4.05-25.44-3.35-32.3,0-6,7.65-5.1,15.3-.85,20.4,2.55,4.25-5.1,7.65-7.65,5.95,3.4,5.95,7.65,12.75,15.3,14.45-2.55,6.8-11,18.7-11.9,48.45,0,0-9.35-8.5-8.5-18.7-5.95,17.85-15.3,44.2,18.7,84.15,0,0-26.35-24.65-31.45-43.35a67.38,67.38,0,0,0-6.8,14.45S3,305.94,11.52,331.44c1.7-4.25,1.7-6.8,3.4-10.2,15.3,21.25,40.8,56.1,80.75,71.41a1.52,1.52,0,0,0,.64,0c39.95-15.31,65.45-50.16,80.75-71.41,1.7,3.4,1.7,5.95,3.4,10.2C189,305.94,184.71,294.89,184.71,294.89Z" transform="translate(0 -62.68)"/><path class="cls-4" d="M178.34,285.45c-10.48,26.05-45.92,53.26-45.92,53.26,31.83-32.1,38.48-72.13,32.83-87.43.81,8.75-12.17,12.61-12.17,12.61,3.34-30.94-9.7-48.69-12.12-54.52,7.26-1.46,11.35-5.34,14.57-10.44-2.42,1.46-8.63-5-6.21-8.62,4-4.37,6.12-12.52.47-19.07-7.41-3.55-19.88-2.79-35.65,1.63,5.17-11.27,25.93-13.26,25.93-13.26S135,152.76,118,152.76c-14.26,0-20.44,12.6-22.24,15.54-1.81-2.94-8.37-16.42-22.63-16.42-16.94,0-22.31,8-22.31,8s17.88,0,27.33,11.41C51.68,166.42,49.54,170,43,172.83c-5.65,6.56-4.84,13.11-.8,17.48,2.42,3.65-2.51,9.81-4.93,8.36,3.23,5.09,6.5,7.64,13.76,9.1-3.77,6.12-13,25.33-12.63,56.57,0,0-10.12-4-11-12.39-5.65,15.29,8.94,63.76,41.21,98,0,0-49.75-48-54.59-64.06-6.39,7.84-7.63,24.3-2.66,39a24,24,0,0,1,3.1-8C43,357.82,77.45,389.5,96,389.5c37.92-13.12,66.94-54.43,81.46-72.64,1.62,2.91,2.21,5.22,3,9.55C185.25,307.57,184.82,295.24,178.34,285.45Z" transform="translate(0 -62.68)"/><path class="cls-5" d="M178.23,290c-10.48,26.06-50.44,52.65-50.44,52.65,31.83-32.11,35.36-65,36.92-82.93-3.25,4.19-13.91,7.67-13.91,7.67,2.47-28.73-7.15-51.09-11.78-57.58,5.15-4.3,9.46-4.79,12.69-9.89-2.42,1.46-7.1-5.33-4.68-9,4-4.37-106.34-6.66-102.3-2.29,2.42,3.65-.44,12.2-2.86,10.74,3.23,5.1,7.8,5.33,14.3,9-9.08,7.27-15.81,27.81-15.86,59.15,0,0-8.71-1.82-11.83-8.19.28,16.82,13.42,61.28,45.69,95.52,0,0-55.27-46.71-60.11-62.74-4.11,9.07-4.51,16-2.74,25.19,1.51-2.93,2.08-4.55,3.77-5.33,35.75,53.3,62.14,74.62,80.68,74.62,37.91-13.12,67.42-56.41,81.94-74.62.75,1.19,1.67.87,2.47,5.2C182.91,304.78,180.83,298.41,178.23,290Z" transform="translate(0 -62.68)"/><path class="cls-6" d="M136.72,216.9c3.31,5.79-14,12.4-24.79,11.57,14.87-.82,19.83-9.91,19.83-9.91-2.48-14.05-9.09-21.49-15.7-24-5.78.83-19.83,9.09-19.83,9.09A2.41,2.41,0,0,0,96,204a2.39,2.39,0,0,0-.27-.33s-14.05-8.26-19.84-9.09c-6.61,2.48-13.22,9.92-15.7,24,0,0,5,9.09,19.84,9.91-10.75.83-28.1-5.78-24.8-11.57,0,0-10.74,8.27-9.09,33.06,1.65,20.66,11.57,29.75,17.36,33.88,2.48,1.66,7.43,2.48,17.35-6.61-1.65,5-1.65,10.74-16.53,15.7,13.23,6.61,9.92,14.88,31.41,20.66l.27-.3a4,4,0,0,0,.28.3c21.48-5.78,18.18-14,31.4-20.66-14.88-5-14.88-10.74-16.53-15.7,9.92,9.09,14.88,8.27,17.36,6.61,5.78-4.13,15.7-13.22,17.35-33.88C147.46,225.17,136.72,216.9,136.72,216.9Z" transform="translate(0 -62.68)"/><path class="cls-7" d="M66.17,179.05a3.78,3.78,0,0,0-1,1.42,3.83,3.83,0,1,0,6.49-1l4,.29A7.22,7.22,0,1,1,62,179.21a3.82,3.82,0,0,1,.21-.46Z" transform="translate(0 -62.68)"/><path class="cls-7" d="M127.77,179.05a3.78,3.78,0,0,1,1,1.42,3.83,3.83,0,1,1-6.49-1l-4,.29a7.22,7.22,0,1,0,13.61-.54,3.82,3.82,0,0,0-.21-.46Z" transform="translate(0 -62.68)"/><path class="cls-3" d="M12.1,235.26a.76.76,0,0,1-1.27.06c-3-4.19-14.72-21.94-9.51-39,4.25-11.9,11.9-7.65,16.15-2.55,3.89,4.67,7.06,17.17,7.58,19.25a.81.81,0,0,1-.09.57Z" transform="translate(0 -62.68)"/><path class="cls-7" d="M19.59,211.17s-3.33-9.35-11.19-10.29a.76.76,0,0,0-.47,1.41l.08,0a.76.76,0,0,1-.48,1.42c-.47-.07-.94-.13-1.37-.17a.76.76,0,0,0-.81.92c1.06,4.65,4,14.68,7.73,21.78a.76.76,0,0,0,1.28.09C19.66,219.18,20.41,213.61,19.59,211.17Z" transform="translate(0 -62.68)"/><path class="cls-3" d="M177.65,236.24s16.16-20.4,10.21-40c-4.25-11.9-11.91-7.65-16.16-2.55s-7.65,19.55-7.65,19.55Z" transform="translate(0 -62.68)"/><path class="cls-7" d="M169.58,211.17S173.83,199.26,184,201a23.4,23.4,0,0,0-5.95,3.41,47.93,47.93,0,0,1,5.95-.85c-.85,4.25-4.25,16.15-8.5,23.8C169.58,219.67,168.73,213.72,169.58,211.17Z" transform="translate(0 -62.68)"/><path class="cls-8" d="M75.84,194.59C69.41,197,63,204.13,60.36,217.47c.81-3.6,4.21-15.06,14.91-18.63,0,0,8.78.07,20.68,5.17a2.39,2.39,0,0,0-.27-.33S81.63,195.42,75.84,194.59Z" transform="translate(0 -62.68)"/><path class="cls-8" d="M116.06,194.59c6.44,2.41,12.86,9.54,15.48,22.88-.81-3.6-4.2-15.06-14.91-18.63,0,0-8.78.07-20.68,5.17a2.41,2.41,0,0,1,.28-.33S110.28,195.42,116.06,194.59Z" transform="translate(0 -62.68)"/><path class="cls-3" d="M96,163.8s-5.1-25.5-18.7-27.2c15.3,1.7,18.7,10.2,18.7,10.2s6-9.35,15.3-11.05C101.09,145.1,96.84,153.6,96,163.8Z" transform="translate(0 -62.68)"/><path class="cls-7" d="M96,190S92.57,173,83.46,171.81C93.71,173,96,178.64,96,178.64s4-6.26,10.25-7.4C99.4,177.5,96.56,183.2,96,190Z" transform="translate(0 -62.68)"/><path class="cls-2" d="M13.91,221.55s1.26-15.25-3.55-18.17a12.41,12.41,0,0,1,.73,6.58,4.6,4.6,0,0,0-2.4-1.67C11.37,211,13.18,216.44,13.91,221.55Z" transform="translate(0 -62.68)"/><path class="cls-2" d="M174.25,221.55S173,206.3,177.8,203.38a12.41,12.41,0,0,0-.73,6.58,4.54,4.54,0,0,1,2.4-1.67C176.78,211,175,216.44,174.25,221.55Z" transform="translate(0 -62.68)"/><path class="cls-3" d="M89.22,216.86s-9-11.71-18.63-5.85c-1.06,1.06-3.72,7.45,5.86,8.51C79.64,219.52,82.3,216.86,89.22,216.86Z" transform="translate(0 -62.68)"/><path class="cls-3" d="M104.25,216.86s9-11.71,18.63-5.85c1.06,1.06,3.72,7.45-5.86,8.51C113.83,219.52,111.17,216.86,104.25,216.86Z" transform="translate(0 -62.68)"/><path class="cls-3" d="M136.12,241s.87,14.25-27.46,9.38c0,0-2.56-.38-6.7-.65-5.57-5.83-4.76-26.19-4.76-26.19-.79,23.49-5.31,26.06-6,26.31-3.12.25-5,.53-5,.53C57.91,255.28,58.78,241,58.78,241s-2.47,14.26,11.09,14.43c13.21.17,16.41-1.42,27.58-1.66,11.12.24,14.37,1.83,27.58,1.66C138.58,255.29,136.12,241,136.12,241Z" transform="translate(0 -62.68)"/><path class="cls-9" d="M111.29,80s-39.77,15.16-61,49.18c20.61-11.48,31.55-9.42,43.75-2.06C86,115.36,82.13,111.53,79.33,111.53,89.22,100.63,98.69,88.34,111.29,80Z" transform="translate(0 -62.68)"/><path class="cls-10" d="M389,359.42V387H382.2A4.18,4.18,0,0,1,378,382.8V359.42h-8.27v-8.27h27.56v8.27Z" transform="translate(0 -62.68)"/><path class="cls-11" d="M422.38,378.71h16.53V387H411.36V351.15h27.55v4.32a3.94,3.94,0,0,1-3.94,3.95H422.38v5.51h16.53v4.2a4.07,4.07,0,0,1-4.07,4.07H422.38Z" transform="translate(0 -62.68)"/><path class="cls-12" d="M457.16,351.15h23.36V387h-11V373.2H464V387H453V355.35A4.2,4.2,0,0,1,457.16,351.15Zm6.82,8.27v5.51h5.52v-5.51Z" transform="translate(0 -62.68)"/><path class="cls-13" d="M505.59,359.42V387h-6.51a4.51,4.51,0,0,1-4.52-4.51V356a4.82,4.82,0,0,1,4.82-4.82h39.28V387h-7.47a3.55,3.55,0,0,1-3.55-3.56v-24h-5.52V387h-11V359.42Z" transform="translate(0 -62.68)"/><path class="cls-7" d="M277.37,225,278,91.6l26.66,8.45a9.26,9.26,0,0,1,6.46,8.83v88.06l16.56-2.51V105.09l28.18,6.43a6.33,6.33,0,0,1,4.93,6.18V220l-73.19,13.24A8.38,8.38,0,0,1,277.37,225Z" transform="translate(0 -62.68)"/><path class="cls-14" d="M285.73,235.36A10.34,10.34,0,0,1,275.45,225h0l.65-136,29.16,9.25a11.14,11.14,0,0,1,7.8,10.65v85.82l12.7-1.92V102.68l30.54,7a8.22,8.22,0,0,1,6.43,8.06V221.58L288,235.1A9.91,9.91,0,0,1,285.73,235.36ZM279.3,225a6.46,6.46,0,0,0,7.89,6.31l71.69-13V117.7a4.39,4.39,0,0,0-3.44-4.3l-25.82-5.89v88.58l-20.42,3.09V108.87a7.3,7.3,0,0,0-5.11-7l-24.16-7.66Z" transform="translate(0 -62.68)"/><path class="cls-7" d="M551.22,120.29a9.77,9.77,0,0,1,7.42-9.48l48.58-12L634,91.6V228.1a4.82,4.82,0,0,1-5.88,4.72l-27.23-6.09V180.31l-16.56-1.44v44.92l-33.11-4.61Zm33.11,12V154l16.56,1.07V129.34Z" transform="translate(0 -62.68)"/><path class="cls-15" d="M629.18,234.87a7,7,0,0,1-1.49-.17L599,228.27V182.08L586.26,181v45l-37-5.15V120.29a11.67,11.67,0,0,1,8.89-11.35l48.58-12,29.17-7.87v139a6.77,6.77,0,0,1-6.75,6.77Zm-26.36-9.69,25.72,5.76a2.93,2.93,0,0,0,2.45-.57,2.89,2.89,0,0,0,1.09-2.27v-134l-24.35,6.56-48.63,12a7.84,7.84,0,0,0-6,7.61V217.5l29.26,4.08V176.77l20.42,1.78Zm0-68-20.42-1.33V130.68L602.82,127Zm-16.56-4.94,12.7.82V131.64l-12.7,2.26Z" transform="translate(0 -62.68)"/><path class="cls-7" d="M238.46,358.92V265.41a8.1,8.1,0,0,1,6.72-8l32.19-6.64,40.92-8.45v34.78l-12,12,12,12v32.46a9.57,9.57,0,0,1-7.81,9.4Zm31.93-89.75v14.65l16-3.28v-14.3Zm0,58.55,16-4.14V302.53l-16,3.8Z" transform="translate(0 -62.68)"/><path class="cls-16" d="M236.53,361.32V265.41a10,10,0,0,1,8.33-9.88L320.22,240v37.94L309,289.09l11.18,11.18v33.26a11.49,11.49,0,0,1-9.39,11.29Zm79.83-116.61-70.78,14.61a6.17,6.17,0,0,0-5.19,6.09v91.1L310.06,341a7.64,7.64,0,0,0,6.3-7.51V301.87l-12.77-12.78,12.77-12.77Zm-47.89,85.5v-25.4l19.82-4.72v25Zm3.85-22.36v17.37l12.11-3.13V305Zm-3.85-21.66V267.56l19.82-3.63v18.19Zm3.85-15.42v10.69L284.43,279V268.56Z" transform="translate(0 -62.68)"/><path class="cls-7" d="M326.37,241.43l19.83-3.15c5.81-.59,10.28-1.64,10.38,4.2l.17,66.4,17.42-1.18V234.22s25.07-3.14,31.93-3.47V331.87s-29.28,1.51-39.87,2.88a375,375,0,0,0-39.86,7Z" transform="translate(0 -62.68)"/><path class="cls-17" d="M324.44,344.19V239.79l21.46-3.41,1.57-.17c3.72-.41,6.93-.77,9.09,1.13,1.27,1.12,1.9,2.79,1.94,5.11l.17,64.36,13.57-.91V232.52l1.69-.21c1-.13,25.22-3.16,32.07-3.49l2-.1v105l-1.83.1c-.29,0-29.32,1.52-39.71,2.86a372.27,372.27,0,0,0-39.67,7Zm3.86-101.11v96.26a379.91,379.91,0,0,1,37.68-6.5c9.13-1.18,31.57-2.44,38.19-2.8V232.81c-7.2.57-22.9,2.48-28.07,3.12V309.5l-21.28,1.44-.17-68.46a3.33,3.33,0,0,0-.64-2.24c-.88-.78-3.54-.49-6.12-.2l-1.49.16Z" transform="translate(0 -62.68)"/><path class="cls-7" d="M493.91,239.09v91.5L462,329.18V253.44H446v75.82l-21.94,0c-5.5,0-10-.49-10-6V229.5s10.38-1.71,39.91-1.71c9.28,0,21.77.05,30.29.79A10.55,10.55,0,0,1,493.91,239.09Z" transform="translate(0 -62.68)"/><path class="cls-18" d="M495.83,332.6,460.05,331V255.37H447.94v75.81l-23.87.05c-4.17,0-11.92,0-11.92-7.92V227.86l1.62-.27c.43-.07,10.87-1.72,40.22-1.72,7.47,0,21.39,0,30.46.79a12.4,12.4,0,0,1,11.38,12.43Zm-31.93-5.26L492,328.57V239.09a8.57,8.57,0,0,0-7.86-8.59c-8.91-.78-22.71-.78-30.13-.78-22.67,0-34.06,1-38,1.47v92.12c0,3.19,1.73,4.06,8.06,4.06l20,0V251.52H463.9Z" transform="translate(0 -62.68)"/><path class="cls-7" d="M581.71,237.15v9.35c0,4.92-4.62,11.86-9.53,11.65l-38.36-4.71v55.88h18.53v-21.2l-10.55,5.69V275.57a6.16,6.16,0,0,1,6.17-6.16l33.74,3.83v66.52S556.46,334.9,541.8,333c-18.92-2.43-39.91-1.6-39.91-1.6V239.54a10.34,10.34,0,0,1,10.32-10.36c7.21,0,18,1,31.54,2.72C571.59,235.36,581.71,237.15,581.71,237.15Z" transform="translate(0 -62.68)"/><path class="cls-19" d="M583.64,342.09l-2.29-.44c-.25,0-25.37-4.87-39.8-6.72-18.53-2.38-39.38-1.59-39.59-1.58l-2,.08V239.54a12.3,12.3,0,0,1,12.25-12.29h.24c6.63,0,16.38.84,31.53,2.73,27.58,3.44,38,5.25,38.07,5.27l1.59.28v11a16,16,0,0,1-4.9,10.69,9.09,9.09,0,0,1-6.65,2.88h-.15l-36.2-4.44v51.77h14.69v-16L539.87,297V275.57a8.1,8.1,0,0,1,8.1-8.09h.21l35.46,4Zm-73-12.73a257.62,257.62,0,0,1,31.38,1.75c12,1.53,31.16,5.08,37.74,6.32V275l-31.92-3.62a4.24,4.24,0,0,0-4.14,4.23v15l10.55-5.69v26.36H531.89v-60l40.44,5a5.41,5.41,0,0,0,3.75-1.81,12.29,12.29,0,0,0,3.71-7.91v-7.72c-3.82-.61-14.82-2.3-36.28-5-15-1.87-24.59-2.71-31.06-2.71h-.23a8.45,8.45,0,0,0-8.4,8.44v89.9C505.36,329.4,507.73,329.36,510.67,329.36Z" transform="translate(0 -62.68)"/><path class="cls-7" d="M596.57,239.31l72.95,16v105l-31.93-10.15v-39.1l-16-2.31v37.28l-31.94-5.2v-96A5.66,5.66,0,0,1,596.57,239.31Zm25.06,24.88v20.64l16,2.63V268.51Z" transform="translate(0 -62.68)"/><path class="cls-20" d="M671.45,363,635.66,351.6V312.76L623.55,311v37.32l-35.78-5.83V244.84a7.59,7.59,0,0,1,9.21-7.41l74.47,16.32Zm-31.93-14.2,28.07,8.93V256.85l-71.43-15.66a3.75,3.75,0,0,0-4.54,3.65v94.38l28.08,4.58V306.55l19.82,2.87Zm0-59-19.82-3.26v-24.8L639.52,267Zm-16-6.53,12.11,2V270l-12.11-3.28Z" transform="translate(0 -62.68)"/><path class="cls-7" d="M451.87,130.19v84.42l-33.11.37V146.53l-16.56-2.37v72.11l-26,1.69c-3.77.43-7.08-1.24-7.08-5V112.64L445.5,122.9A7.35,7.35,0,0,1,451.87,130.19Z" transform="translate(0 -62.68)"/><path class="cls-21" d="M375,220a8.35,8.35,0,0,1-5.64-2,6.6,6.6,0,0,1-2.16-5.08V110.44L445.76,121a9.32,9.32,0,0,1,8,9.2v86.33l-37,.41V148.21l-12.71-1.83v71.7l-27.83,1.8A12,12,0,0,1,375,220ZM371,114.85v98.08a2.78,2.78,0,0,0,.88,2.2,5.28,5.28,0,0,0,4.05.91l24.33-1.58V141.94l20.41,2.92V213l29.26-.32V130.19a5.44,5.44,0,0,0-4.7-5.38Z" transform="translate(0 -62.68)"/><path class="cls-7" d="M542.94,112.64v16.47a9.63,9.63,0,0,1-8.29,9.53l-41.38,5.79v45.86h19.12V173.73l-10.85,3.19V161.17a8.08,8.08,0,0,1,7.08-8l34.32-4.26.41,69.44c4.15.08-25.05-2.08-42.06-3-10.29-.57-41.14-.7-41.14-.7V130.94a8.89,8.89,0,0,1,7.77-8.82Z" transform="translate(0 -62.68)"/><path class="cls-22" d="M543.4,220.26h-.09l-1.88,0V220c-6.35-.55-26.62-2-40.25-2.77-10.12-.57-40.73-.7-41-.7h-1.92V130.94a10.83,10.83,0,0,1,9.46-10.73l77.19-9.75v18.65a11.6,11.6,0,0,1-10,11.44l-39.73,5.56v42.25h15.27V176.31l-10.84,3.18V161.17a10,10,0,0,1,8.76-9.92l36.47-4.53.42,70.37a1.74,1.74,0,0,1,.4,1.31C545.66,218.71,545.49,220.26,543.4,220.26Zm-81.32-7.57c6.91,0,30.59.21,39.32.69,7.09.4,17.26,1.06,27.22,1.78,4.32.31,8.15.6,10.89.82l1.9.16L541,151.08l-32.16,4a6.15,6.15,0,0,0-5.39,6.1v13.17l10.85-3.18v21.06h-23V142.76l43-6a7.73,7.73,0,0,0,6.63-7.62V114.83L468.16,124a7,7,0,0,0-6.08,6.91Z" transform="translate(0 -62.68)"/><g class="cls-23"><path class="cls-24" d="M282.09,222.43l.82-123.33,16.58,6.69a8.2,8.2,0,0,1,5.73,7.82l.17,90.61,27.73-4.59V113.47l17.39,3.3a5.64,5.64,0,0,1,4.38,5.49l.71,96.08-65,13.61C286,233,282.07,227.22,282.09,222.43Z" transform="translate(0 -62.68)"/><path class="cls-25" d="M447.07,135.73V208l-22.38,1.82-.1-67.81-27.75-4.31L396,211.32l-12.59,2a7.41,7.41,0,0,1-7.75-6.91V119.63l65,8.82A7.34,7.34,0,0,1,447.07,135.73Z" transform="translate(0 -62.68)"/><path class="cls-26" d="M537.27,118l.41,6.41c.09,7-2.23,8.69-8.29,9.53l-40.86,5.63-.17,55.08,28.51.5v-27.4l-10.65,3,.11-7.72c0-4.08,2.72-5.28,6.77-5.78l25-3.15v59.3c4.15.09-15.59-2.45-37.47-3.18-14.75-.5-36-.17-36-.17V136.25a8.9,8.9,0,0,1,7.78-8.82Z" transform="translate(0 -62.68)"/><path class="cls-27" d="M555.86,124.51a9.76,9.76,0,0,1,7.42-9.48L602,105.8l26.78-7.22V221.43c0,3.09-1.95,6.31-5,5.64l-18.29-3.82,0-47.91-26.16-2.65.15,45.65-23.69-3.21Zm23.19,3.58v31.17l27.64,3V123Z" transform="translate(0 -62.68)"/></g></g></g></svg>
